# xmcd CD database file
#
# Track frame offsets:
#	150
#	18410
#	30832
#	61875
#	78054
#	100372
#	118307
#	134845
#	152912
#	168102
#	188432
#	207267
#	217762
#	237530
#	256940
#	278400
#	293677
#	310110
#	330540
#	347055
#
# Disc length: 4799 seconds
#
# Revision: 2
# Processed by: cddbd v1.5.2PL0 Copyright (c) Steve Scherf et al.
# Submitted via: CDex 1.70beta2
#
DISCID=0f12bd14
DTITLE=Various Artist - The Blues: A Musical Journey [CD5]
DYEAR=2003
DGENRE=Blues
TTITLE0=B.B. King - The Thrill Is Gone
TTITLE1=Johnny Winter - Dallas
TTITLE2=Derek and The Dominos - Have You Ever Loved A Woman
TTITLE3=Hound Dog Taylor and The Houserockers - Give Me Back My Wig
TTITLE4=The Allman Brothers Band - One Way Out
TTITLE5=Z.Z. Hill - Down Home Blues
TTITLE6=Stevie Ray Vaughan and Double Trouble - Pride And Joy
TTITLE7=Robert Cray - Smoking Gun
TTITLE8=Fabulous Thunderbirds - Tuff Enuff
TTITLE9=John Lee Hooker and Bonnie Raitt - I'm In The Mood
TTITLE10=Ali Farka Toure - Timbarma
TTITLE11=Keb' Mo' - Am I Wrong
TTITLE12=Luther Allison - Cherry Red Wine
TTITLE13=Peggy Scott-Adams - Bill
TTITLE14=Susan Tedeschi - Just Won't Burn
TTITLE15=Los Lobos - Voodoo Music
TTITLE16=Bonnie Raitt - Round and Round
TTITLE17=Cassandra Wilson - Vietnam Blues
TTITLE18=Robert Cray and Shemekia Copeland - I Pity The Fool (live)
TTITLE19=Keb' Mo' and Corey Harris - Sweet Home Chicago
EXTD=YEAR: 2003
EXTT0=
EXTT1=
EXTT2=
EXTT3=
EXTT4=
EXTT5=
EXTT6=
EXTT7=
EXTT8=
EXTT9=
EXTT10=
EXTT11=
EXTT12=
EXTT13=
EXTT14=
EXTT15=
EXTT16=
EXTT17=
EXTT18=
EXTT19=
PLAYORDER=
